# File created by Blade
# Date/Time:  Wed Sep 24 20:21:23 2014
# Frame Rate: 120.000 fps
#------------------------------------------------------
:FULLY-SPECIFIED
:DEGREES
253
root -8.638462 32.089837 -7.792576 10.002155 8.824628 17.332114
Spine 29.609831 -13.914258 -19.639192
Head -49.660951 6.455319 4.765648
LeftShoulder 16.258038 -1.516997 8.660054
LeftArm 39.203496 -9.298746 -83.657112
LeftForeArm -79.868490 -0.000000 2.009494
LeftHand -21.589994 0.000000 -9.380863
LeftHandThumb1 -26.253704 0.000000 33.147579
RightShoulder -15.080916 17.999945 -22.940406
RightArm -5.467037 -19.978902 74.675202
RightForeArm -32.030538 -0.000000 35.115243
RightHand -7.060431 -0.000000 -0.163498
RightHandThumb1 -24.326973 -0.000000 -32.862282
LeftUpLeg -129.215804 10.686537 -38.710519
LeftLeg 111.242253 -0.000000 -0.000000
LeftFoot 29.521712 19.795380 -23.514829
LeftToeBase -2.530809 -0.000000 0.000000
RightUpLeg -26.883055 -2.676599 -8.824425
RightLeg 37.430436 -0.000000 -0.000000
RightFoot -19.548785 -20.731107 -6.446904
RightToeBase 0.433890 -0.000000 -0.000000
254
root -8.642983 32.084418 -7.790015 9.871229 8.921285 17.483607
Spine 29.966230 -13.794699 -19.907894
Head -49.785261 6.317483 4.743933
LeftShoulder 16.405245 -1.674072 8.589347
LeftArm 39.144912 -9.431900 -83.137080
LeftForeArm -80.419363 0.000000 1.786006
LeftHand -20.881322 -0.000000 -11.073555
LeftHandThumb1 -26.253704 0.000000 33.147579
RightShoulder -15.187475 17.910277 -22.936363
RightArm -5.495540 -20.115753 74.465796
RightForeArm -31.921366 -0.000000 34.990037
RightHand -7.000675 0.000000 -0.089358
RightHandThumb1 -24.326973 -0.000000 -32.862282
LeftUpLeg -129.257648 10.516072 -38.711610
LeftLeg 111.374613 -0.000000 -0.000000
LeftFoot 30.061424 19.840104 -23.547480
LeftToeBase -3.210936 -0.000000 0.000000
RightUpLeg -26.793706 -2.772978 -8.963342
RightLeg 37.637624 -0.000000 -0.000000
RightFoot -19.642279 -20.689056 -6.351018
RightToeBase 0.310549 -0.000000 -0.000000
255
root -8.640619 32.080723 -7.789016 9.740186 9.048923 17.650561
Spine 30.321616 -13.724186 -20.150899
Head -49.899743 6.130160 4.692712
LeftShoulder 16.539021 -1.739787 8.477830
LeftArm 39.171130 -10.023166 -82.979318
LeftForeArm -80.303083 -0.000000 1.738647
LeftHand -20.248238 -0.000000 -12.796974
LeftHandThumb1 -26.253704 0.000000 33.147579
RightShoulder -15.307272 17.858325 -23.001934
RightArm -5.521949 -20.367042 74.276168
RightForeArm -31.614480 0.000000 34.782454
RightHand -6.963891 -0.000000 -0.066248
RightHandThumb1 -24.326973 -0.000000 -32.862282
LeftUpLeg -129.256651 10.330206 -38.717293
LeftLeg 111.512354 -0.000000 -0.000000
LeftFoot 30.612973 19.749506 -23.430838
LeftToeBase -3.603209 -0.000000 0.000000
RightUpLeg -26.685447 -3.047290 -9.106104
RightLeg 37.818198 -0.000000 -0.000000
RightFoot -19.787896 -20.521102 -6.251948
RightToeBase 0.309828 -0.000000 -0.000000
256
root -8.642739 32.076312 -7.787303 9.610790 9.159947 17.769005
Spine 30.633721 -13.648202 -20.337915
Head -49.974441 5.934286 4.653562
LeftShoulder 16.729292 -2.037939 8.335280
LeftArm 38.885408 -10.565599 -82.722923
LeftForeArm -79.946945 -0.000000 1.625115
LeftHand -19.230802 0.000000 -14.744046
LeftHandThumb1 -26.253704 0.000000 33.147579
RightShoulder -15.385293 17.865510 -23.075049
RightArm -5.600772 -20.605974 74.103106
RightForeArm -31.261135 -0.000000 34.538426
RightHand -6.963759 0.000000 0.010771
RightHandThumb1 -24.326973 -0.000000 -32.862282
LeftUpLeg -129.246669 10.197527 -38.620312
LeftLeg 111.644008 -0.000000 -0.000000
LeftFoot 31.090402 19.571154 -23.306291
LeftToeBase -3.842523 -0.000000 0.000000
RightUpLeg -26.576171 -3.274496 -9.201295
RightLeg 37.974615 -0.000000 -0.000000
RightFoot -19.925027 -20.359231 -6.114497
RightToeBase 0.299899 -0.000000 -0.000000
257
root -8.643573 32.072466 -7.786670 9.507569 9.218082 17.910396
Spine 30.891821 -13.539528 -20.564061
Head -50.033072 5.753816 4.652991
LeftShoulder 16.894679 -2.172122 8.213898
LeftArm 38.688577 -10.457766 -81.862173
LeftForeArm -80.720468 -0.000000 1.549683
LeftHand -18.788415 -0.000000 -15.672253
LeftHandThumb1 -26.253704 0.000000 33.147579
RightShoulder -15.461166 17.864252 -23.144713
RightArm -5.628440 -20.815974 73.954618
RightForeArm -30.939862 -0.000000 34.171100
RightHand -6.810655 -0.000000 0.044054
RightHandThumb1 -24.326973 -0.000000 -32.862282
LeftUpLeg -129.257830 10.120875 -38.547803
LeftLeg 111.769753 -0.000000 -0.000000
LeftFoot 31.525161 19.339156 -23.190067
LeftToeBase -4.100020 -0.000000 0.000000
RightUpLeg -26.512712 -3.570691 -9.314762
RightLeg 38.144889 -0.000000 -0.000000
RightFoot -20.078697 -20.100315 -5.989001
RightToeBase 0.302775 -0.000000 -0.000000
258
root -8.645531 32.069378 -7.788759 9.449561 9.251271 18.052200
Spine 31.069225 -13.430057 -20.778334
Head -50.066895 5.586028 4.690221
LeftShoulder 17.049872 -2.221023 8.100557
LeftArm 38.557462 -10.557902 -81.192683
LeftForeArm -80.956187 -0.000000 1.544934
LeftHand -18.345728 -0.000000 -17.398692
LeftHandThumb1 -26.253704 0.000000 33.147579
RightShoulder -15.538885 17.877567 -23.236951
RightArm -5.689911 -20.947526 73.869238
RightForeArm -30.682193 -0.000000 33.797315
RightHand -6.645293 -0.000000 0.125347
RightHandThumb1 -24.326973 -0.000000 -32.862282
LeftUpLeg -129.324484 9.988392 -38.555765
LeftLeg 111.872709 -0.000000 -0.000000
LeftFoot 31.661495 19.659268 -23.159379
LeftToeBase -3.799466 -0.000000 0.000000
RightUpLeg -26.500908 -3.837885 -9.435900
RightLeg 38.309674 -0.000000 -0.000000
RightFoot -20.237900 -19.803710 -5.808175
RightToeBase 0.303248 -0.000000 -0.000000
259
root -8.656354 32.063313 -7.785115 9.353818 9.267656 18.090925
Spine 31.249757 -13.302816 -20.889748
Head -50.094976 5.437853 4.719698
LeftShoulder 17.186566 -2.299468 7.969992
LeftArm 38.398223 -10.707617 -80.547773
LeftForeArm -81.124528 -0.000000 1.507038
LeftHand -18.258352 -0.000000 -19.218793
LeftHandThumb1 -26.253704 0.000000 33.147579
RightShoulder -15.641271 17.918241 -23.324623
RightArm -5.678255 -21.197965 73.748933
RightForeArm -30.333563 0.000000 33.378727
RightHand -6.647180 0.000000 0.229403
RightHandThumb1 -24.326973 -0.000000 -32.862282
LeftUpLeg -129.399598 10.013673 -38.434854
LeftLeg 111.984605 -0.000000 -0.000000
LeftFoot 31.970899 19.580507 -23.152403
LeftToeBase -3.883637 -0.000000 0.000000
RightUpLeg -26.430331 -3.952840 -9.459026
RightLeg 38.410960 -0.000000 -0.000000
RightFoot -20.443137 -19.595051 -5.528322
RightToeBase 0.512373 -0.000000 -0.000000
260
root -8.663614 32.061956 -7.781381 9.253785 9.247212 18.196041
Spine 31.442526 -13.153450 -21.084974
Head -50.166918 5.278736 4.734028
LeftShoulder 17.253546 -2.374760 7.892549
LeftArm 38.269574 -10.925825 -80.017482
LeftForeArm -81.356317 -0.000000 1.510521
LeftHand -18.035761 0.000000 -20.802264
LeftHandThumb1 -26.253704 0.000000 33.147579
RightShoulder -15.737073 17.966676 -23.415877
RightArm -5.676813 -21.417985 73.691636
RightForeArm -30.070120 -0.000000 32.984566
RightHand -6.661921 -0.000000 0.250123
RightHandThumb1 -24.326973 -0.000000 -32.862282
LeftUpLeg -129.426420 10.095996 -38.289596
LeftLeg 112.071477 -0.000000 -0.000000
LeftFoot 32.345661 19.474263 -23.335240
LeftToeBase -4.239452 -0.000000 0.000000
RightUpLeg -26.361893 -4.105475 -9.549856
RightLeg 38.523145 -0.000000 -0.000000
RightFoot -20.688584 -19.237130 -5.169202
RightToeBase 0.804461 -0.000000 -0.000000
